# xmcd CD database file generated by Grip 3.2.0
# 
# Track frame offsets:
#       183
#       3970
#       19553
#       35303
#       51843
#       89405
#       102618
#       121695
#       144555
#       166608
# 
# Disc length: 2339 seconds
# 
# Revision: 6
# Processed by: cddbd v1.5.1PL2 Copyright (c) Steve Scherf et al.
# Submitted via: Grip 3.2.0
# 
DISCID=7009210a
DTITLE=Free - Tons Of Sobs
DYEAR=1968
DGENRE=Rock
TTITLE0=Over The Green Hills (Part I)
TTITLE1=Worry
TTITLE2=Walk In My Shadow
TTITLE3=Wild Indian Woman
TTITLE4=Goin' Down Slow
TTITLE5=I'm A Mover
TTITLE6=The Hunter
TTITLE7=Moonshine
TTITLE8=Sweet Tooth
TTITLE9=Over The Green Hills (Part II)
EXTD=YEAR: 1968
EXTT0=
EXTT1=
EXTT2=
EXTT3=
EXTT4=
EXTT5=
EXTT6=
EXTT7=
EXTT8=
EXTT9=
PLAYORDER=
